<svg width="20" height="20" viewBox="0 0 20 20" fill="none" xmlns="http://www.w3.org/2000/svg">
<g id="1">
<g id="Group">
<g id="invert-process">
<path id="Path" d="M2.78419 3.09723L2.25778 7.28324L6.36797 6.13799" stroke="white" stroke-width="2" stroke-linecap="square"/>
<path id="Path_2" d="M15.8643 15.4278C15.5608 15.8724 15.2129 16.2849 14.8259 16.659" stroke="white" stroke-width="2" stroke-linecap="square"/>
<path id="Path_3" d="M2.6347 6.63334C4.65306 3.50941 8.56882 2.20426 12.0578 3.49255C15.5468 4.78085 17.6747 8.3176 17.1785 12.0036" stroke="white" stroke-width="2" stroke-linecap="square"/>
</g>
<g id="10">
<path id="Path_4" d="M4.72938 11.9091H3.58841L2.3331 12.6896V13.7536L3.47158 13.0575H3.50141V17H4.72938V11.9091Z" fill="white"/>
<path id="Shape" fill-rule="evenodd" clip-rule="evenodd" d="M10.0431 14.462C10.0407 16.1424 9.22285 17.1268 7.89048 17.1243C6.5581 17.1243 5.73532 16.1374 5.74029 14.462C5.74277 12.7891 6.5581 11.8395 7.89048 11.8395C9.22285 11.8395 10.0456 12.7916 10.0431 14.462ZM7.00554 14.462C7.00057 15.5856 7.36101 16.1175 7.89048 16.1175C8.42243 16.1175 8.78038 15.5856 8.77789 14.462C8.77541 13.3608 8.41994 12.8388 7.89048 12.8388C7.36349 12.8388 7.00803 13.3608 7.00554 14.462Z" fill="white"/>
</g>
</g>
</g>
</svg>
