<svg width="20" height="20" viewBox="0 0 20 20" fill="none" xmlns="http://www.w3.org/2000/svg">
<g id="2">
<g id="Group">
<g id="invert-process">
<path id="Path" d="M16.7236 3.09723L17.25 7.28324L13.1398 6.13799" stroke="white" stroke-width="2" stroke-linecap="square"/>
<path id="Path_2" d="M3.64348 15.4278C3.94693 15.8724 4.29485 16.2849 4.68185 16.659" stroke="white" stroke-width="2" stroke-linecap="square"/>
<path id="Path_3" d="M16.873 6.63334C14.8547 3.50941 10.9389 2.20426 7.44995 3.49255C3.96098 4.78085 1.83307 8.3176 2.32926 12.0036" stroke="white" stroke-width="2" stroke-linecap="square"/>
</g>
<g id="10">
<path id="Path_4" d="M10.7294 11.9091H9.58841L8.3331 12.6896V13.7536L9.47158 13.0575H9.50141V17H10.7294V11.9091Z" fill="white"/>
<path id="Shape" fill-rule="evenodd" clip-rule="evenodd" d="M16.0431 14.462C16.0407 16.1424 15.2228 17.1268 13.8905 17.1243C12.5581 17.1243 11.7353 16.1374 11.7403 14.462C11.7428 12.7891 12.5581 11.8395 13.8905 11.8395C15.2228 11.8395 16.0456 12.7916 16.0431 14.462ZM13.0055 14.462C13.0006 15.5856 13.361 16.1175 13.8905 16.1175C14.4224 16.1175 14.7804 15.5856 14.7779 14.462C14.7754 13.3608 14.4199 12.8388 13.8905 12.8388C13.3635 12.8388 13.008 13.3608 13.0055 14.462Z" fill="white"/>
</g>
</g>
</g>
</svg>
